<?xml version="1.0" encoding="utf-8"?>
<!-- Generator: Adobe Illustrator 24.0.1, SVG Export Plug-In . SVG Version: 6.00 Build 0)  -->
<!DOCTYPE svg PUBLIC "-//W3C//DTD SVG 1.1//EN" "http://www.w3.org/Graphics/SVG/1.1/DTD/svg11.dtd" [
	<!ENTITY st0 "fill:#273840;">
]>
<svg version="1.1" xmlns="http://www.w3.org/2000/svg" xmlns:xlink="http://www.w3.org/1999/xlink" x="0px" y="0px"
	 viewBox="0 0 510.2 510.2" style="enable-background:new 0 0 510.2 510.2;" xml:space="preserve">
<g id="Capa_1">
</g>
<g id="Outline">
	<g>
		<path style="&st0;" d="M255.5-0.1C114.6-0.1,0.4,114.1,0.4,255s114.2,255.1,255.1,255.1S510.6,395.9,510.6,255
			C510.4,114.2,396.3,0,255.5-0.1z M255.5,467.6c-117.4,0-212.6-95.2-212.6-212.6S138.1,42.4,255.5,42.4S468.1,137.6,468.1,255
			C467.9,372.4,372.8,467.5,255.5,467.6z"/>
		<path style="&st0;" d="M255.5,127.4c-11.7,0-21.3,9.5-21.3,21.3v91.9l-71.7,44.9c-10,6.2-13,19.4-6.8,29.4
			c6.2,10,19.4,13,29.4,6.8l81.6-51c6.3-3.9,10-10.8,10-18.2V148.7C276.7,137,267.2,127.4,255.5,127.4z"/>
	</g>
</g>
</svg>
