<?xml version="1.0" encoding="utf-8"?>
<!-- Generator: Adobe Illustrator 24.0.1, SVG Export Plug-In . SVG Version: 6.00 Build 0)  -->
<!DOCTYPE svg PUBLIC "-//W3C//DTD SVG 1.1//EN" "http://www.w3.org/Graphics/SVG/1.1/DTD/svg11.dtd" [
	<!ENTITY st0 "fill:#1D1D1B;">
	<!ENTITY st1 "fill:#C49E5C;stroke:#C49E5C;stroke-width:4;stroke-miterlimit:10;">
]>
<svg version="1.1" id="Capa_1" xmlns="http://www.w3.org/2000/svg" xmlns:xlink="http://www.w3.org/1999/xlink" x="0px" y="0px"
	 viewBox="0 0 226.8 226.8" style="enable-background:new 0 0 226.8 226.8;" xml:space="preserve">
<circle style="&st0;" cx="113.4" cy="113.4" r="113.4"/>
<g>
	<g>
		<path style="&st1;" d="M120.6,115.3c0-32.5,0-38.4-0.4-45c-0.4-7.1-2.1-10.4-9-11.9c-1.7-0.4-5.2-0.6-7.1-0.6
			c-0.8,0-1.7-0.4-1.7-1.2c0-1.3,1-1.7,3.3-1.7c9.4,0,21.9,0.6,23.6,0.6c4.6,0,16.7-0.6,26.3-0.6c26.1,0,35.4,8.8,38.8,11.9
			c4.6,4.4,10.4,13.8,10.4,24.8c0,29.6-21.7,49.6-51.3,49.6c-1,0-3.3,0-4.4-0.2c-1,0-2.3-0.4-2.3-1.5c0-1.7,1.3-1.9,5.6-1.9
			c20.2,0,36.1-14.8,36.1-34c0-6.9-0.6-20.9-11.7-32.1c-11.1-11.3-23.8-10.4-28.6-10.4c-3.5,0-7.1,0.4-9,1.2c-1.3,0.4-1.7,1.9-1.7,4
			V152c0,20,0,36.5,1,45.2c0.6,6,1.9,10.6,8.1,11.5c2.9,0.4,7.5,0.8,9.4,0.8c1.2,0,1.7,0.6,1.7,1.2c0,1-1,1.7-3.3,1.7
			c-11.5,0-24.6-0.6-25.6-0.6c-0.6,0-13.8,0.6-20,0.6c-2.3,0-3.3-0.4-3.3-1.7c0-0.6,0.4-1.2,1.7-1.2c1.9,0,4.4-0.4,6.3-0.8
			c4.2-0.8,5.2-5.4,6-11.5c1-8.8,1-25.2,1-45.2V115.3z"/>
	</g>
	<g>
		<path style="&st1;" d="M44.2,177.5c-2.9-1.5-3.1-2.3-3.1-7.9c0-10.4,0.8-18.8,1-22.1c0.2-2.3,0.6-3.3,1.7-3.3
			c1.3,0,1.5,0.6,1.5,2.3c0,1.9,0,4.8,0.6,7.7c3.1,15.4,16.9,21.3,30.9,21.3c20,0,29.8-14.4,29.8-27.7c0-14.4-6-22.7-24-37.5
			l-9.4-7.7C51.1,84.3,46.1,71.4,46.1,57.2c0-22.3,16.7-37.5,43.2-37.5c8.1,0,14.2,0.8,19.4,2.1c4,0.8,5.6,1,7.3,1s2.1,0.4,2.1,1.5
			c0,1-0.8,7.9-0.8,22.1c0,3.3-0.4,4.8-1.5,4.8c-1.3,0-1.5-1-1.7-2.7c-0.2-2.5-1.5-8.1-2.7-10.4c-1.3-2.3-6.9-11-26.1-11
			c-14.4,0-25.6,9-25.6,24.2c0,11.9,5.4,19.4,25.4,35l5.8,4.6c24.6,19.4,30.4,32.3,30.4,49c0,8.5-3.3,24.4-17.7,34.6
			c-9,6.3-20.2,8.8-31.5,8.8C62.4,183.1,52.8,181.7,44.2,177.5z"/>
	</g>
</g>
</svg>
