<?xml version="1.0" encoding="utf-8"?>
<!-- Generator: Adobe Illustrator 24.0.1, SVG Export Plug-In . SVG Version: 6.00 Build 0)  -->
<!DOCTYPE svg PUBLIC "-//W3C//DTD SVG 1.1//EN" "http://www.w3.org/Graphics/SVG/1.1/DTD/svg11.dtd" [
	<!ENTITY st0 "fill:#273840;">
]>
<svg version="1.1" xmlns="http://www.w3.org/2000/svg" xmlns:xlink="http://www.w3.org/1999/xlink" x="0px" y="0px"
	 viewBox="0 0 510.2 510.2" style="enable-background:new 0 0 510.2 510.2;" xml:space="preserve">
<g id="Capa_1">
</g>
<g id="Outline">
	<path style="&st0;" d="M255.5,127.4c-47,0-85,38.1-85,85s38.1,85,85,85s85-38.1,85-85S302.4,127.4,255.5,127.4z M255.5,254.9
		c-23.5,0-42.5-19-42.5-42.5s19-42.5,42.5-42.5s42.5,19,42.5,42.5S279,254.9,255.5,254.9z"/>
	<path style="&st0;" d="M255.5,510c-36.3,0.2-70.5-17.2-91.6-46.8C82.8,351.5,41.7,267.5,41.7,213.5C41.7,95.5,137.4-0.2,255.5-0.2
		c118,0,213.7,95.7,213.7,213.7c0,54-41.1,138-122.1,249.7C326,492.8,291.8,510.2,255.5,510z M255.5,46.2
		c-92.4,0.1-167.3,75-167.4,167.4c0,42.7,40.2,121.7,113.3,222.5c21.7,29.9,63.5,36.5,93.4,14.8c5.7-4.1,10.7-9.1,14.8-14.8
		c73-100.7,113.3-179.8,113.3-222.5C422.8,121.2,347.9,46.3,255.5,46.2z"/>
</g>
</svg>
