<?xml version="1.0" encoding="utf-8"?>
<!-- Generator: Adobe Illustrator 24.0.1, SVG Export Plug-In . SVG Version: 6.00 Build 0)  -->
<!DOCTYPE svg PUBLIC "-//W3C//DTD SVG 1.1//EN" "http://www.w3.org/Graphics/SVG/1.1/DTD/svg11.dtd" [
	<!ENTITY st0 "fill:#C49E5C;stroke:#C49E5C;stroke-width:0.3278;stroke-miterlimit:10;">
	<!ENTITY st1 "fill:#C49E5C;">
	<!ENTITY st2 "fill:none;stroke:#C49E5C;stroke-width:0.6354;stroke-linecap:round;stroke-linejoin:round;stroke-miterlimit:10;">
	<!ENTITY st3 "fill:none;stroke:#C49E5C;stroke-width:0.5083;stroke-linecap:round;stroke-linejoin:round;stroke-miterlimit:10;">
	<!ENTITY st4 "fill:#C49E5C;stroke:#C49E5C;stroke-width:0.6354;stroke-miterlimit:10;">
	<!ENTITY st5 "fill:none;stroke:#C49E5C;stroke-width:0.2541;stroke-linecap:round;stroke-linejoin:round;stroke-miterlimit:10;">
]>
<svg version="1.1" xmlns="http://www.w3.org/2000/svg" xmlns:xlink="http://www.w3.org/1999/xlink" x="0px" y="0px"
	 viewBox="0 0 453.5 119.1" style="enable-background:new 0 0 453.5 119.1;" xml:space="preserve">
<g id="Capa_1">
</g>
<g id="_x3C_Capa_x3E_">
	<g>
		<g>
			<polygon style="&st0;" points="8.3,110.3 3,110.3 3,112.4 31,112.4 			"/>
			<polygon style="&st0;" points="143.4,110.3 123.6,112.4 453.5,112.4 453.5,110.3 			"/>
		</g>
		<g>
			<polygon style="&st0;" points="54,7.6 3,7.6 3,9.6 50.6,9.6 			"/>
			<polygon style="&st0;" points="75.9,7.6 79.7,9.6 453.5,9.6 453.5,7.6 			"/>
		</g>
		<g>
			<g>
				<path style="&st1;" d="M184.2,79c0-8.4,0-9.9-0.1-11.6c-0.1-1.8-0.5-2.7-2.3-3.1c-0.4-0.1-1.3-0.2-1.8-0.2
					c-0.2,0-0.4-0.1-0.4-0.3c0-0.3,0.3-0.4,0.9-0.4c2.4,0,5.6,0.2,6.1,0.2c1.2,0,4.3-0.2,6.8-0.2c6.7,0,9.1,2.3,10,3.1
					c1.2,1.1,2.7,3.5,2.7,6.4c0,7.6-5.6,12.8-13.2,12.8c-0.3,0-0.9,0-1.1-0.1c-0.3,0-0.6-0.1-0.6-0.4c0-0.4,0.3-0.5,1.4-0.5
					c5.2,0,9.3-3.8,9.3-8.7c0-1.8-0.2-5.4-3-8.3s-6.1-2.7-7.3-2.7c-0.9,0-1.8,0.1-2.3,0.3c-0.3,0.1-0.4,0.5-0.4,1v22
					c0,5.1,0,9.4,0.3,11.6c0.2,1.6,0.5,2.7,2.1,2.9c0.8,0.1,1.9,0.2,2.4,0.2c0.3,0,0.4,0.2,0.4,0.3c0,0.3-0.3,0.4-0.9,0.4
					c-2.9,0-6.3-0.2-6.6-0.2c-0.2,0-3.5,0.2-5.1,0.2c-0.6,0-0.9-0.1-0.9-0.4c0-0.2,0.1-0.3,0.4-0.3c0.5,0,1.1-0.1,1.6-0.2
					c1.1-0.2,1.3-1.4,1.6-2.9c0.3-2.3,0.3-6.5,0.3-11.6V79z"/>
				<path style="&st1;" d="M216.5,82.7c0-7.1,0-8.4-0.1-9.8c-0.1-1.6-0.4-2.3-1.9-2.5c-0.4-0.1-1.2-0.1-1.6-0.1
					c-0.2,0-0.4-0.2-0.4-0.4c0-0.3,0.2-0.4,0.8-0.4c2.1,0,5.3,0.1,5.6,0.1c0.5,0,4.4-0.1,5.9-0.1c3,0,6.3,0.3,8.8,2
					c1.2,0.9,3.3,3.1,3.3,6.2c0,3.4-1.4,6.6-5.8,10.4c3.9,4.8,7.1,8.9,9.9,11.8c2.5,2.6,4.1,3,5.3,3.2c0.9,0.2,1.4,0.2,1.7,0.2
					c0.3,0,0.4,0.2,0.4,0.4c0,0.3-0.3,0.4-1.1,0.4h-2.9c-2.7,0-3.9-0.3-5-0.9c-2-1.1-3.8-3.3-6.4-6.7c-2-2.5-4.1-5.4-5.1-6.6
					c-0.2-0.2-0.3-0.3-0.6-0.3l-6-0.1c-0.2,0-0.3,0.1-0.3,0.4v1.1c0,4.4,0,7.9,0.2,9.8c0.2,1.3,0.4,2.2,1.9,2.4
					c0.6,0.1,1.7,0.2,2.1,0.2c0.3,0,0.4,0.2,0.4,0.4c0,0.2-0.2,0.4-0.8,0.4c-2.6,0-5.6-0.2-5.8-0.2c-0.1,0-3.2,0.2-4.7,0.2
					c-0.5,0-0.8-0.1-0.8-0.4c0-0.2,0.1-0.4,0.4-0.4c0.4,0,1-0.1,1.4-0.2c0.9-0.2,1-1.1,1.2-2.4c0.3-1.9,0.3-5.5,0.3-9.9V82.7z
					 M220.6,86.6c0,0.3,0.1,0.4,0.3,0.6c0.7,0.4,3.1,0.7,5.2,0.7c1.1,0,2.4-0.1,3.5-0.8c1.6-1.1,2.8-3.5,2.8-7
					c0-5.7-3.1-8.9-8.1-8.9c-1.4,0-2.9,0.2-3.4,0.3c-0.2,0.1-0.4,0.3-0.4,0.5V86.6z"/>
				<path style="&st1;" d="M266.6,68.9c10.6,0,18.6,6.5,18.6,17.1c0,10.2-7.6,18.6-18.9,18.6c-12.9,0-18.4-9.7-18.4-17.9
					C247.9,79.3,253.6,68.9,266.6,68.9z M267.7,102.7c4.2,0,12.8-2.3,12.8-15.4c0-10.9-6.6-16.7-14.1-16.7
					c-7.9,0-13.6,4.9-13.6,14.8C252.8,96.1,259.2,102.7,267.7,102.7z"/>
				<path style="&st1;" d="M295.1,82.7c0-7.1,0-8.4-0.1-9.8c-0.1-1.6-0.4-2.3-1.9-2.5c-0.4-0.1-1.2-0.1-1.6-0.1
					c-0.2,0-0.4-0.2-0.4-0.4c0-0.3,0.2-0.4,0.8-0.4c2.1,0,5.1,0.1,5.5,0.1c1,0,4.6-0.1,6.7-0.1c6.1,0,8.2,1.9,9,2.6
					c1.1,1,2.4,3,2.4,5.5c0,6.5-4.9,10.9-12.2,10.9c-0.3,0-1.1,0-1.3-0.1c-0.2,0-0.5-0.2-0.5-0.4c0-0.4,0.3-0.5,1.2-0.5
					c5.1,0,8.7-3.2,8.7-7.3c0-1.5-0.2-4.4-2.7-6.9c-2.5-2.5-5.3-2.2-6.4-2.2c-0.8,0-2.1,0.2-2.6,0.3c-0.3,0.1-0.4,0.4-0.4,0.9v18.5
					c0,4.4,0,8,0.2,9.9c0.2,1.3,0.4,2.2,1.9,2.4c0.6,0.1,1.7,0.2,2.1,0.2c0.3,0,0.4,0.2,0.4,0.4c0,0.2-0.2,0.4-0.8,0.4
					c-2.6,0-5.7-0.2-5.9-0.2c-0.2,0-3.2,0.2-4.7,0.2c-0.5,0-0.8-0.1-0.8-0.4c0-0.2,0.1-0.4,0.4-0.4c0.4,0,1-0.1,1.4-0.2
					c0.9-0.2,1-1.1,1.2-2.4c0.3-1.9,0.3-5.5,0.3-9.9V82.7z"/>
				<path style="&st1;" d="M325.8,82.7c0-7.1,0-8.4-0.1-9.8c-0.1-1.6-0.4-2.3-1.9-2.5c-0.4-0.1-1.2-0.1-1.6-0.1
					c-0.2,0-0.4-0.2-0.4-0.4c0-0.3,0.2-0.4,0.8-0.4c2.1,0,5.2,0.1,5.5,0.1c0.3,0,10.2,0.1,11.3,0c0.9-0.1,1.8-0.2,2.1-0.3
					c0.2-0.1,0.4-0.2,0.6-0.2c0.2,0,0.2,0.2,0.2,0.4c0,0.3-0.3,0.9-0.4,2.1c-0.1,0.4-0.2,2.5-0.3,3c-0.1,0.2-0.2,0.5-0.4,0.5
					c-0.3,0-0.4-0.2-0.4-0.6c0-0.3-0.1-1.1-0.3-1.6c-0.3-0.8-0.8-1.1-3.4-1.4c-0.8-0.1-6.3-0.2-6.8-0.2c-0.2,0-0.3,0.2-0.3,0.5v12.4
					c0,0.3,0,0.5,0.3,0.5c0.6,0,6.8,0,7.9-0.1c1.1-0.1,1.8-0.2,2.3-0.6c0.3-0.3,0.5-0.6,0.7-0.6c0.2,0,0.3,0.1,0.3,0.4
					c0,0.3-0.3,1-0.4,2.5c-0.1,0.9-0.2,2.6-0.2,2.9c0,0.4-0.1,0.9-0.4,0.9c-0.2,0-0.3-0.2-0.3-0.4c0-0.4,0-0.9-0.2-1.5
					c-0.2-0.6-0.6-1.2-2.4-1.4c-1.3-0.2-6.3-0.2-7.1-0.2c-0.3,0-0.3,0.2-0.3,0.3v3.8c0,1.6-0.1,6.9,0,7.8c0.1,3.1,1,3.6,5.6,3.6
					c1.2,0,3.5,0,4.7-0.5c1.2-0.5,1.9-1.3,2.1-3.2c0.1-0.5,0.2-0.7,0.5-0.7c0.3,0,0.3,0.4,0.3,0.7c0,0.3-0.4,3.4-0.6,4.4
					c-0.3,1.2-0.8,1.2-2.6,1.2c-3.5,0-6.3-0.1-8.2-0.2c-2-0.1-3.2-0.1-3.9-0.1c-0.1,0-1,0-2,0.1c-0.9,0.1-2,0.1-2.7,0.1
					c-0.5,0-0.8-0.1-0.8-0.4c0-0.2,0.1-0.4,0.4-0.4c0.4,0,1-0.2,1.4-0.2c0.9-0.2,1-1.1,1.2-2.4c0.3-1.9,0.3-5.5,0.3-9.9V82.7z"/>
				<path style="&st1;" d="M355.3,82.7c0-7.1,0-8.4-0.1-9.8c-0.1-1.6-0.4-2.3-1.9-2.5c-0.4-0.1-1.2-0.1-1.6-0.1
					c-0.2,0-0.4-0.2-0.4-0.4c0-0.3,0.2-0.4,0.8-0.4c2.1,0,5.3,0.1,5.6,0.1c0.5,0,4.4-0.1,5.9-0.1c3,0,6.3,0.3,8.8,2
					c1.2,0.9,3.3,3.1,3.3,6.2c0,3.4-1.4,6.6-5.8,10.4c3.9,4.8,7.1,8.9,9.9,11.8c2.5,2.6,4.1,3,5.3,3.2c0.9,0.2,1.4,0.2,1.7,0.2
					c0.3,0,0.4,0.2,0.4,0.4c0,0.3-0.3,0.4-1.1,0.4h-2.9c-2.7,0-3.9-0.3-5-0.9c-2-1.1-3.8-3.3-6.4-6.7c-2-2.5-4.1-5.4-5.1-6.6
					c-0.2-0.2-0.3-0.3-0.6-0.3l-6-0.1c-0.2,0-0.3,0.1-0.3,0.4v1.1c0,4.4,0,7.9,0.2,9.8c0.2,1.3,0.4,2.2,1.9,2.4
					c0.6,0.1,1.7,0.2,2.1,0.2c0.3,0,0.4,0.2,0.4,0.4c0,0.2-0.2,0.4-0.8,0.4c-2.6,0-5.6-0.2-5.8-0.2c-0.1,0-3.2,0.2-4.7,0.2
					c-0.5,0-0.8-0.1-0.8-0.4c0-0.2,0.1-0.4,0.4-0.4c0.4,0,1-0.1,1.4-0.2c0.9-0.2,1-1.1,1.2-2.4c0.3-1.9,0.3-5.5,0.3-9.9V82.7z
					 M359.4,86.6c0,0.3,0.1,0.4,0.3,0.6c0.7,0.4,3.1,0.7,5.2,0.7c1.1,0,2.4-0.1,3.5-0.8c1.6-1.1,2.8-3.5,2.8-7
					c0-5.7-3.1-8.9-8.1-8.9c-1.4,0-2.9,0.2-3.4,0.3c-0.2,0.1-0.4,0.3-0.4,0.5V86.6z"/>
				<path style="&st1;" d="M399.1,90.7c0,4.4,0,8,0.2,9.9c0.2,1.3,0.4,2.2,1.8,2.4c0.6,0.1,1.7,0.2,2.1,0.2c0.3,0,0.4,0.2,0.4,0.4
					c0,0.2-0.2,0.4-0.8,0.4c-2.6,0-5.6-0.2-5.8-0.2c-0.2,0-3.5,0.2-4.9,0.2c-0.5,0-0.8-0.1-0.8-0.4c0-0.2,0.1-0.3,0.4-0.3
					c0.4,0,1-0.1,1.4-0.2c1-0.2,1.2-1.1,1.4-2.5c0.2-1.9,0.2-5.5,0.2-9.9V71.6l-6.8,0.1c-2.9,0.1-4.1,0.4-4.8,1.4
					c-0.5,0.8-0.6,1.1-0.8,1.4c-0.1,0.4-0.3,0.4-0.5,0.4c-0.1,0-0.3-0.1-0.3-0.4c0-0.5,0.9-4.6,1-4.9c0.1-0.3,0.3-0.9,0.5-0.9
					c0.3,0,0.8,0.4,2.1,0.5c1.3,0.2,3.2,0.2,3.7,0.2h17.8c1.6,0,2.6-0.1,3.4-0.2c0.7-0.1,1.1-0.2,1.3-0.2c0.2,0,0.2,0.3,0.2,0.5
					c0,1.4-0.2,4.7-0.2,5.2c0,0.4-0.2,0.6-0.4,0.6c-0.2,0-0.3-0.2-0.4-0.8l-0.1-0.5c-0.2-1.4-1.2-2.4-5.7-2.5l-5.9-0.1V90.7z"/>
				<path style="&st1;" d="M428,92.1c0-2.5-0.3-3.4-1-4.7c-0.4-0.7-6.8-10.8-8.4-13.2c-1.1-1.7-2.3-2.7-3.1-3.3
					c-0.7-0.4-1.6-0.6-2-0.6c-0.3,0-0.5-0.2-0.5-0.4c0-0.2,0.2-0.3,0.6-0.3c0.9,0,4.4,0.1,4.7,0.1c0.3,0,2.3-0.1,4.1-0.1
					c0.5,0,0.6,0.1,0.6,0.3c0,0.2-0.3,0.3-0.8,0.5c-0.4,0.2-0.6,0.4-0.6,0.8c0,0.6,0.3,1.2,0.6,1.8l8.6,14.2
					c1-1.9,6.9-11.7,7.7-13.2c0.6-1,0.8-1.8,0.8-2.4c0-0.6-0.2-1-0.8-1.2c-0.4-0.1-0.7-0.3-0.7-0.5c0-0.2,0.3-0.3,0.8-0.3
					c1.2,0,2.9,0.1,3.3,0.1c0.3,0,3.7-0.1,4.6-0.1c0.3,0,0.6,0.1,0.6,0.3c0,0.2-0.2,0.5-0.6,0.5c-0.5,0-1.4,0.2-2.2,0.6
					c-0.9,0.5-1.3,1-2.4,2.3c-1.6,1.8-8.2,12.5-9.2,14.5c-0.8,1.6-0.6,3.1-0.6,4.6v3.9c0,0.8,0,2.7,0.2,4.6c0.1,1.3,0.4,2.2,1.8,2.4
					c0.6,0.1,1.7,0.2,2.1,0.2c0.3,0,0.4,0.2,0.4,0.4c0,0.2-0.3,0.4-0.8,0.4c-2.6,0-5.7-0.2-5.9-0.2c-0.2,0-3.2,0.2-4.6,0.2
					c-0.5,0-0.8-0.1-0.8-0.4c0-0.2,0.1-0.4,0.4-0.4c0.4,0,1-0.1,1.4-0.2c1-0.2,1.3-1.1,1.4-2.4c0.1-1.9,0.1-3.8,0.1-4.6V92.1z"/>
			</g>
			<g>
				<path style="&st1;" d="M154.7,55.9c-0.8-0.4-0.8-0.6-0.8-2c0-2.7,0.2-4.8,0.3-5.7c0.1-0.6,0.2-0.9,0.4-0.9
					c0.3,0,0.4,0.2,0.4,0.6c0,0.5,0,1.2,0.2,2c0.8,4,4.3,5.5,7.9,5.5c5.1,0,7.7-3.7,7.7-7.1c0-3.7-1.6-5.8-6.2-9.6l-2.4-2
					c-5.7-4.7-7-8-7-11.6c0-5.7,4.3-9.6,11.1-9.6c2.1,0,3.6,0.2,5,0.5c1,0.2,1.4,0.3,1.9,0.3s0.5,0.1,0.5,0.4s-0.2,2-0.2,5.7
					c0,0.9-0.1,1.2-0.4,1.2c-0.3,0-0.4-0.3-0.4-0.7c-0.1-0.6-0.4-2.1-0.7-2.7s-1.8-2.8-6.7-2.8c-3.7,0-6.6,2.3-6.6,6.2
					c0,3.1,1.4,5,6.5,9l1.5,1.2c6.3,5,7.8,8.3,7.8,12.6c0,2.2-0.9,6.3-4.6,8.9c-2.3,1.6-5.2,2.3-8.1,2.3
					C159.3,57.4,156.9,57,154.7,55.9z"/>
				<path style="&st1;" d="M200.8,21.5c10.6,0,18.6,6.5,18.6,17.1c0,10.2-7.6,18.6-18.9,18.6c-12.9,0-18.4-9.7-18.4-17.9
					C182.1,32,187.7,21.5,200.8,21.5z M201.8,55.3c4.2,0,12.8-2.3,12.8-15.4c0-10.9-6.6-16.7-14.1-16.7c-7.9,0-13.6,4.9-13.6,14.8
					C186.9,48.7,193.3,55.3,201.8,55.3z"/>
				<path style="&st1;" d="M231.3,50.4c0.1,3.8,0.5,4.9,1.8,5.2c0.9,0.2,1.9,0.3,2.4,0.3c0.2,0,0.4,0.2,0.4,0.4
					c0,0.3-0.3,0.4-0.9,0.4c-2.7,0-4.6-0.2-5-0.2s-2.4,0.2-4.6,0.2c-0.5,0-0.8-0.1-0.8-0.4c0-0.2,0.2-0.4,0.4-0.4
					c0.4,0,1.2-0.1,1.9-0.3c1.2-0.3,1.3-1.6,1.3-5.7V23.8c0-1.8,0.3-2.3,0.6-2.3c0.5,0,1.3,0.9,1.8,1.4c0.8,0.8,7.6,8,14.9,15.5
					c4.7,4.8,9.7,10.2,11.1,11.7l-0.5-22.8c-0.1-2.9-0.3-4-1.8-4.2c-0.9-0.2-1.9-0.2-2.3-0.2c-0.3,0-0.4-0.3-0.4-0.4
					c0-0.3,0.4-0.3,0.9-0.3c2.1,0,4.4,0.1,4.9,0.1s2.1-0.1,4-0.1c0.5,0,0.9,0.1,0.9,0.3c0,0.2-0.2,0.4-0.5,0.4c-0.2,0-0.6,0-1.1,0.1
					c-1.6,0.3-1.7,1.2-1.7,4l-0.1,26.7c0,3-0.1,3.3-0.4,3.3c-0.5,0-1-0.4-3.6-2.8c-0.5-0.4-7.3-7.1-12.3-12.3
					c-5.5-5.7-10.8-11.3-12.2-12.9L231.3,50.4z"/>
				<path style="&st1;" d="M271.5,35.4c0-7.1,0-8.4-0.1-9.8c-0.1-1.4-0.4-2.3-1.9-2.5c-0.4-0.1-1.2-0.1-1.6-0.1
					c-0.2,0-0.4-0.2-0.4-0.4c0-0.3,0.2-0.4,0.8-0.4c2.1,0,5,0.1,5.4,0.1s3.4-0.1,4.8-0.1c0.5,0,0.8,0.1,0.8,0.4
					c0,0.2-0.2,0.4-0.4,0.4c-0.3,0-0.6,0-1.2,0.1c-1.2,0.2-1.5,1-1.6,2.5c-0.1,1.4-0.1,2.7-0.1,9.8v6.4c0,6.6,1.4,9.3,3.5,11.1
					c2.3,2.1,4.3,2.5,7,2.5c2.9,0,5.7-1.3,7.3-3.2c2.2-2.6,2.7-6.4,2.7-11v-5.7c0-7.1-0.1-8.4-0.1-9.8c-0.1-1.4-0.3-2.3-1.9-2.5
					c-0.4-0.1-1.2-0.1-1.6-0.1c-0.2,0-0.4-0.2-0.4-0.4c0-0.3,0.2-0.4,0.8-0.4c2.1,0,4.8,0.1,5.1,0.1c0.3,0,2.6-0.1,4-0.1
					c0.5,0,0.8,0.1,0.8,0.4c0,0.2-0.2,0.4-0.4,0.4c-0.3,0-0.6,0-1.2,0.1c-1.3,0.3-1.6,1-1.7,2.5c-0.1,1.4-0.1,2.7-0.1,9.8v4.9
					c0,4.9-0.6,10.4-4.4,13.7c-3.4,2.9-7.1,3.3-9.9,3.3c-1.6,0-6.5-0.1-9.8-3.2c-2.3-2.1-4.1-5.3-4.1-12V35.4z"/>
				<path style="&st1;" d="M309.2,56c-0.6-0.3-0.7-0.5-0.7-1.7c0-2.3,0.2-4.1,0.3-4.8c0-0.5,0.1-0.8,0.4-0.8s0.4,0.2,0.4,0.5
					c0,0.4,0,1,0.2,1.7c0.8,3.3,4.3,4.5,7.4,4.5c4.7,0,7.1-2.6,7.1-6.1c0-3.3-1.8-4.8-5.9-7.9l-2.1-1.6c-5.1-3.8-6.8-6.6-6.8-9.8
					c0-5.4,4.2-8.6,10.5-8.6c1.9,0,3.8,0.3,4.9,0.5c0.9,0.2,1.3,0.2,1.7,0.2s0.5,0.1,0.5,0.3c0,0.2-0.2,1.7-0.2,4.8
					c0,0.7-0.1,1-0.4,1s-0.4-0.2-0.4-0.6c-0.1-0.5-0.4-1.8-0.7-2.3c-0.3-0.5-1.9-2.3-6.1-2.3c-3.4,0-6.3,1.7-6.3,4.9
					c0,2.9,1.4,4.6,6.1,7.7l1.3,0.9c5.7,3.9,7.7,7.1,7.7,11c0,2.7-1,5.6-4.4,7.8c-2,1.3-4.9,1.6-7.5,1.6
					C313.9,57.2,311.1,56.9,309.2,56z"/>
			</g>
		</g>
		<g>
			<polygon style="&st2;" points="159.7,77.1 159.7,79.9 166.2,81.2 166.2,106.1 171.6,105.6 171.6,80.1 			"/>
			<polygon style="&st3;" points="134.8,78.8 159.7,77.1 159.7,79.9 138.7,81.5 138.7,106.4 134.8,106.3 			"/>
			<polygon style="&st2;" points="171.6,80.1 81.6,57.3 81.6,42.4 171.6,72.8 			"/>
			<polygon style="&st2;" points="11.4,73.9 81.6,57.3 81.6,42.4 11.4,64.4 			"/>
			<polygon style="&st2;" points="151.4,53.5 64.4,13.6 64.4,1.5 151.4,47.3 			"/>
			<polygon style="&st2;" points="17.9,37.5 64.4,13.6 64.4,1.5 17.9,28.8 			"/>
			<polygon style="&st2;" points="43,42.4 81.6,27.8 145.8,55 151.4,53.5 64.4,13.6 17.9,37.5 			"/>
			<g>
				<polygon style="&st2;" points="60.4,44.1 60.4,49.1 81.6,42.4 103,49.6 103,44.1 81.6,36.8 				"/>
				<polygon style="&st4;" points="60.4,35.8 60.4,44.1 81.6,36.8 103,44.1 103,36.8 81.6,27.8 				"/>
				<line style="&st4;" x1="103" y1="49.6" x2="103" y2="44.1"/>
				<line style="&st5;" x1="81.6" y1="42.4" x2="81.6" y2="36.8"/>
			</g>
			<polygon style="&st2;" points="43,54.5 43,42.4 50.4,39.6 50.4,52.2 			"/>
			<polygon style="&st4;" points="118,50.2 114.2,48.8 114.2,41.6 118,43.2 			"/>
			<polygon style="&st2;" points="114.2,53.4 114.2,48.8 118,50.2 118,54.7 			"/>
			<polygon style="&st4;" points="128.2,53.9 125,52.7 125,46.2 128.2,47.5 			"/>
			<polygon style="&st2;" points="125,57.1 125,52.7 128.2,53.9 128.2,58.1 			"/>
			<polygon style="&st4;" points="143.7,59.6 135.1,56.4 135.1,50.5 143.7,54.1 			"/>
			<polygon style="&st2;" points="135.1,60.5 135.1,56.4 143.7,59.6 143.7,63.4 			"/>
			<polygon style="&st2;" points="11.4,73.9 22.3,75 59.7,67.1 131.5,79.1 159.7,77.1 133,70.3 81.6,57.3 			"/>
			<polyline style="&st3;" points="159.7,106.7 80.5,114.3 0,107.4 22.3,106.4 			"/>
			<polygon style="&st2;" points="54.8,50.8 54.8,37.9 60.4,35.8 60.4,49.1 			"/>
			<polygon style="&st2;" points="22.3,75 22.3,107.5 44.3,109.3 44.3,74.3 59.7,71.7 59.7,67.1 			"/>
			<polygon style="&st2;" points="130,78.8 59.7,67.1 59.7,71.7 116.7,79.9 116.7,106.7 130,106.1 			"/>
			<g>
				<polygon style="&st3;" points="130,109.1 133,109.3 133,70.3 130,70.5 				"/>
				<polygon style="&st3;" points="134.8,109.1 133,109.3 133,70.3 134.8,70.8 				"/>
			</g>
			<g>
				<polyline style="&st2;" points="138.7,106.4 159.7,106.7 166.2,106.1 166.2,81.2 159.7,79.9 138.7,81.5 138.7,106.4 				"/>
				<line style="&st5;" x1="148.7" y1="80.7" x2="148.7" y2="106.5"/>
				<line style="&st5;" x1="159.7" y1="79.9" x2="159.7" y2="106.7"/>
			</g>
			<g>
				<polygon style="&st2;" points="44.3,74.3 44.3,109.3 59.7,110.4 116.7,106.7 116.7,79.9 59.7,71.7 				"/>
				<line style="&st5;" x1="59.7" y1="110.4" x2="59.7" y2="71.7"/>
				<line style="&st5;" x1="106.3" y1="78.4" x2="106.3" y2="107.4"/>
				<line style="&st5;" x1="96.2" y1="76.9" x2="96.2" y2="108"/>
				<line style="&st5;" x1="82.4" y1="74.9" x2="82.4" y2="108.9"/>
				<line style="&st5;" x1="72.2" y1="73.5" x2="72.2" y2="109.6"/>
			</g>
			<g>
				<polygon style="&st3;" points="80.5,114.3 171.6,105.6 171.6,107.4 80.5,116.8 0,109.6 0,107.4 				"/>
				<line style="&st3;" x1="80.5" y1="114.3" x2="80.5" y2="116.8"/>
			</g>
			<path style="&st2;" d="M81.6,27.8"/>
			<polygon style="&st2;" points="103,36.8 114.2,41.6 114.2,53.4 103,49.6 			"/>
			<polygon style="&st2;" points="118,43.2 125,46.2 125,57.1 118,54.7 			"/>
			<polygon style="&st2;" points="128.2,47.5 135.1,50.5 135.1,60.5 128.2,58.1 			"/>
			<polygon style="&st2;" points="143.7,54.1 145.8,55 145.8,64.1 143.7,63.4 			"/>
			<polygon style="&st4;" points="25.5,74.3 38.6,71.6 38.6,108.8 25.5,107.8 			"/>
		</g>
		<g>
			<rect x="347.3" y="21.3" style="&st1;" width="16.5" height="16.5"/>
			<rect x="347.3" y="40.7" style="&st1;" width="16.5" height="16.5"/>
			<rect x="366.6" y="21.3" style="&st1;" width="16.5" height="16.5"/>
			<rect x="366.6" y="40.7" style="&st1;" width="16.5" height="16.5"/>
			<rect x="386" y="21.3" style="&st1;" width="16.5" height="16.5"/>
			<rect x="386" y="40.7" style="&st1;" width="16.5" height="16.5"/>
			<rect x="405.4" y="21.3" style="&st1;" width="16.5" height="16.5"/>
			<rect x="405.4" y="40.7" style="&st1;" width="16.5" height="16.5"/>
			<rect x="424.8" y="21.3" style="&st1;" width="16.5" height="16.5"/>
			<rect x="424.8" y="40.7" style="&st1;" width="16.5" height="16.5"/>
		</g>
		<polygon style="&st4;" points="50.4,39.6 54.8,37.9 54.8,46.1 50.4,47.6 		"/>
		<polygon style="&st2;" points="50.4,52.2 54.8,50.8 54.8,46.1 50.4,47.6 		"/>
	</g>
</g>
</svg>
