<?xml version="1.0" encoding="utf-8"?>
<!-- Generator: Adobe Illustrator 24.0.1, SVG Export Plug-In . SVG Version: 6.00 Build 0)  -->
<!DOCTYPE svg PUBLIC "-//W3C//DTD SVG 1.1//EN" "http://www.w3.org/Graphics/SVG/1.1/DTD/svg11.dtd" [
	<!ENTITY st0 "fill:#273840;">
]>
<svg version="1.1" xmlns="http://www.w3.org/2000/svg" xmlns:xlink="http://www.w3.org/1999/xlink" x="0px" y="0px"
	 viewBox="0 0 510.2 510.2" style="enable-background:new 0 0 510.2 510.2;" xml:space="preserve">
<g id="Capa_1">
</g>
<g id="Outline">
	<path style="&st0;" d="M403.9,21.3H106.3C47.6,21.3,0.1,68.9,0,127.6v255.1C0.1,441.4,47.6,488.9,106.3,489h297.6
		c58.7-0.1,106.2-47.6,106.3-106.3V127.6C510.2,68.9,462.6,21.3,403.9,21.3z M106.3,63.8h297.6c26,0.1,49.4,15.9,59.1,40.1
		L300.2,266.7c-24.9,24.8-65.3,24.8-90.2,0L47.2,103.9C56.9,79.7,80.3,63.8,106.3,63.8z M403.9,446.5H106.3
		c-35.2,0-63.8-28.6-63.8-63.8V159.4l137.4,137.3c41.5,41.4,108.8,41.4,150.3,0l137.4-137.3v223.2
		C467.7,417.9,439.2,446.5,403.9,446.5z"/>
</g>
</svg>
