<?xml version="1.0" encoding="utf-8"?>
<!-- Generator: Adobe Illustrator 24.0.1, SVG Export Plug-In . SVG Version: 6.00 Build 0)  -->
<!DOCTYPE svg PUBLIC "-//W3C//DTD SVG 1.1//EN" "http://www.w3.org/Graphics/SVG/1.1/DTD/svg11.dtd" [
	<!ENTITY st0 "fill:#273840;">
]>
<svg version="1.1" xmlns="http://www.w3.org/2000/svg" xmlns:xlink="http://www.w3.org/1999/xlink" x="0px" y="0px"
	 viewBox="0 0 510.2 510.2" style="enable-background:new 0 0 510.2 510.2;" xml:space="preserve">
<g id="Capa_1">
</g>
<g id="Outline">
	<g>
		<path style="&st0;" d="M318.9,0H191.3C132.7,0.1,85.1,47.6,85,106.3v297.6c0.1,58.7,47.6,106.2,106.3,106.3h127.6
			c58.7-0.1,106.2-47.6,106.3-106.3V106.3C425.1,47.6,377.6,0.1,318.9,0z M191.3,42.5h127.6c35.2,0,63.8,28.6,63.8,63.8v233.9H127.6
			V106.3C127.6,71.1,156.1,42.5,191.3,42.5z M318.9,467.7H191.3c-35.2,0-63.8-28.6-63.8-63.8v-21.3h255.1v21.3
			C382.7,439.2,354.1,467.7,318.9,467.7z"/>
		<circle style="&st0;" cx="255.1" cy="425.2" r="21.3"/>
	</g>
</g>
</svg>
